<svg width="64" height="64" viewBox="0 0 64 64" fill="none" xmlns="http://www.w3.org/2000/svg">
<g id="icons8-connect 1">
<g id="Group">
<path id="in_circle3" d="M16 37C18.7614 37 21 34.7614 21 32C21 29.2386 18.7614 27 16 27C13.2386 27 11 29.2386 11 32C11 34.7614 13.2386 37 16 37Z" fill="url(#paint0_linear_118_4)"/>
<path id="out_circle" d="M54.364 41.636C51.599 38.873 47.473 38.296 44.129 39.886L43.051 38.808C42.164 37.922 40.765 37.739 39.654 38.24L33.879 32.465C33.704 32.29 33.508 32.145 33.314 32C33.509 31.855 33.705 31.71 33.879 31.535L39.559 25.855C39.965 26.048 40.402 26.156 40.843 26.156C41.612 26.156 42.38 25.863 42.965 25.278L44.041 24.202C45.237 24.774 46.551 25.086 47.915 25.086C50.318 25.086 52.579 24.149 54.278 22.449C57.787 18.94 57.787 13.23 54.278 9.72101C50.769 6.21201 45.059 6.20901 41.55 9.72101C39.85 11.42 38.913 13.681 38.913 16.084C38.913 17.449 39.225 18.763 39.797 19.959L38.721 21.034C37.8 21.955 37.616 23.326 38.144 24.44L32.464 30.12C31.898 30.688 31.145 31 30.343 31H28.816C28.402 29.839 27.302 29 26 29H24.475C23.236 25.51 19.91 23 16 23C11.037 23 7 27.037 7 32C7 36.963 11.037 41 16 41C19.91 41 23.236 38.49 24.475 35H26C27.302 35 28.402 34.161 28.816 33H30.343C31.145 33 31.899 33.313 32.465 33.879L38.229 39.643C38.039 40.041 37.929 40.475 37.929 40.929C37.929 41.731 38.242 42.485 38.808 43.05L39.886 44.128C38.295 47.472 38.871 51.599 41.636 54.364C43.391 56.118 45.696 56.995 48 56.995C50.304 56.995 52.609 56.118 54.364 54.364C57.873 50.854 57.873 45.146 54.364 41.636ZM42.965 11.136C44.329 9.77201 46.122 9.08901 47.914 9.08901C49.707 9.08901 51.5 9.77201 52.864 11.136C55.593 13.865 55.593 18.306 52.864 21.035C51.542 22.357 49.784 23.086 47.915 23.086C46.045 23.086 44.287 22.357 42.965 21.035C41.643 19.713 40.914 17.955 40.914 16.085C40.914 14.216 41.643 12.458 42.965 11.136ZM41.551 22.449C41.789 22.687 42.041 22.907 42.3 23.115L41.551 23.864C41.172 24.242 40.515 24.241 40.136 23.864C39.746 23.473 39.746 22.84 40.136 22.449L40.886 21.7C41.093 21.959 41.313 22.211 41.551 22.449ZM16 39C12.141 39 9 35.859 9 32C9 28.141 12.141 25 16 25C19.859 25 23 28.141 23 32C23 35.859 19.859 39 16 39ZM26 33H24.941C24.978 32.671 25 32.338 25 32C25 31.662 24.978 31.329 24.941 31H26C26.552 31 27 31.448 27 32C27 32.552 26.552 33 26 33ZM40.222 41.635C40.033 41.447 39.929 41.197 39.929 40.929C39.929 40.662 40.033 40.411 40.222 40.222C40.602 39.845 41.258 39.844 41.636 40.222L42.385 40.971C42.127 41.178 41.875 41.397 41.636 41.636C41.397 41.875 41.178 42.126 40.971 42.385L40.222 41.635ZM52.95 52.95C50.221 55.679 45.779 55.679 43.05 52.95C40.321 50.221 40.321 45.779 43.05 43.05C45.78 40.321 50.222 40.321 52.95 43.05C55.679 45.779 55.679 50.221 52.95 52.95Z" fill="url(#paint1_linear_118_4)"/>
<path id="in_circle2" d="M48 21C49.336 21 50.592 20.479 51.535 19.535C52.479 18.592 53 17.336 53 16C53 14.664 52.479 13.408 51.535 12.465C50.592 11.521 49.336 11 48 11C46.664 11 45.408 11.521 44.465 12.465C43.521 13.408 43 14.664 43 16C43 17.336 43.521 18.591 44.465 19.535C45.409 20.479 46.664 21 48 21ZM45.879 13.879C46.445 13.313 47.198 13 48 13C48.802 13 49.555 13.313 50.121 13.879C50.687 14.445 51 15.198 51 16C51 16.802 50.687 17.555 50.121 18.121C48.988 19.254 47.012 19.254 45.879 18.121C45.313 17.555 45 16.802 45 16C45 15.198 45.313 14.445 45.879 13.879Z" fill="url(#paint2_linear_118_4)"/>
<path id="in_circle1" d="M51.535 44.465C50.592 43.521 49.336 43 48 43C46.664 43 45.409 43.521 44.465 44.465C43.521 45.409 43 46.664 43 48C43 49.336 43.521 50.592 44.465 51.535C45.408 52.479 46.664 53 48 53C49.336 53 50.592 52.479 51.535 51.535C52.479 50.592 53 49.336 53 48C53 46.664 52.479 45.408 51.535 44.465ZM50.121 50.121C48.988 51.254 47.012 51.254 45.879 50.121C45.313 49.555 45 48.802 45 48C45 47.198 45.313 46.445 45.879 45.879C46.445 45.313 47.198 45 48 45C48.802 45 49.555 45.313 50.121 45.879C50.687 46.445 51 47.198 51 48C51 48.802 50.688 49.555 50.121 50.121Z" fill="url(#paint3_linear_118_4)"/>
</g>
</g>
<defs>
<linearGradient id="paint0_linear_118_4" x1="16" y1="27.0426" x2="16" y2="35.8513" gradientUnits="userSpaceOnUse">
<stop stop-color="#6DC7FF"/>
<stop offset="1" stop-color="#E6ABFF"/>
</linearGradient>
<linearGradient id="paint1_linear_118_4" x1="31.9979" y1="3.42551" x2="31.9979" y2="51.347" gradientUnits="userSpaceOnUse">
<stop stop-color="#1A6DFF"/>
<stop offset="1" stop-color="#C822FF"/>
</linearGradient>
<linearGradient id="paint2_linear_118_4" x1="48" y1="3.4255" x2="48" y2="51.347" gradientUnits="userSpaceOnUse">
<stop stop-color="#1A6DFF"/>
<stop offset="1" stop-color="#C822FF"/>
</linearGradient>
<linearGradient id="paint3_linear_118_4" x1="48" y1="3.4255" x2="48" y2="51.347" gradientUnits="userSpaceOnUse">
<stop stop-color="#1A6DFF"/>
<stop offset="1" stop-color="#C822FF"/>
</linearGradient>
</defs>
</svg>
